<?xml version="1.0" encoding="UTF-8" standalone="no"?>
<svg
   id="Layer_1"
   data-name="Layer 1"
   viewBox="0 0 186.64006 46.768391"
   version="1.1"
   sodipodi:docname="ohio_logo_small.svg"
   inkscape:version="1.1.1 (c3084ef, 2021-09-22)"
   width="186.64006"
   height="46.768391"
   xmlns:inkscape="http://www.inkscape.org/namespaces/inkscape"
   xmlns:sodipodi="http://sodipodi.sourceforge.net/DTD/sodipodi-0.dtd"
   xmlns="http://www.w3.org/2000/svg"
   xmlns:svg="http://www.w3.org/2000/svg"
   xmlns:rdf="http://www.w3.org/1999/02/22-rdf-syntax-ns#"
   xmlns:cc="http://creativecommons.org/ns#"
   xmlns:dc="http://purl.org/dc/elements/1.1/">
  <sodipodi:namedview
     id="namedview949"
     pagecolor="#ffffff"
     bordercolor="#666666"
     borderopacity="1.0"
     inkscape:pageshadow="2"
     inkscape:pageopacity="0.0"
     inkscape:pagecheckerboard="0"
     showgrid="false"
     inkscape:zoom="3.5844396"
     inkscape:cx="93.320026"
     inkscape:cy="23.434625"
     inkscape:window-width="1440"
     inkscape:window-height="776"
     inkscape:window-x="0"
     inkscape:window-y="25"
     inkscape:window-maximized="0"
     inkscape:current-layer="Layer_1"
     fit-margin-top="0"
     fit-margin-left="0"
     fit-margin-right="0"
     fit-margin-bottom="0" />
  <defs
     id="defs826">
    <style
       id="style824">.cls-1{fill:#006f53;}.cls-2{fill:#746d64;}</style>
  </defs>
  <title
     id="title828">Ohio Logo Green Gray-2</title>
  <path
     class="cls-1"
     d="m 42.525586,7.055346 c 11.63979,0.855193 21.43565,4.863912 26.27596,10.31577 h 1.15246 C 64.940826,11.277863 54.222996,6.841548 41.488376,6.093253 a 5.8659948,5.441168 0 0 1 1.03721,0.962093 z"
     id="path830"
     style="stroke-width:0.554969" />
  <path
     class="cls-1"
     d="M 33.882166,6.146703 C 21.262791,6.894997 10.660207,11.331313 5.704651,17.424566 h 1.152455 c 4.782687,-5.451858 14.52093,-9.407127 26.1031,-10.31577 a 3.8607235,3.5811224 0 0 1 0.92196,-0.962093 z"
     id="path832"
     style="stroke-width:0.554969" />
  <polygon
     class="cls-1"
     points="69.4,45.1 69.4,42 71.5,42 71.5,45.1 "
     id="polygon834"
     transform="scale(0.57622739,0.53449588)" />
  <polygon
     class="cls-1"
     points="63.6,45.1 63.6,42 65.7,42 65.7,45.1 "
     id="polygon836"
     transform="scale(0.57622739,0.53449588)" />
  <polygon
     class="cls-1"
     points="58,45.1 58,42 60.1,42 60.1,45.1 "
     id="polygon838"
     transform="scale(0.57622739,0.53449588)" />
  <polygon
     class="cls-1"
     points="52.5,45.1 52.5,42 54.6,42 54.6,45.1 "
     id="polygon840"
     transform="scale(0.57622739,0.53449588)" />
  <polygon
     class="cls-1"
     points="75.2,45.1 75.2,42 77.3,42 77.3,45.1 "
     id="polygon842"
     transform="scale(0.57622739,0.53449588)" />
  <polygon
     class="cls-1"
     points="81,45.1 81,42 83,42 83,45.1 "
     id="polygon844"
     transform="scale(0.57622739,0.53449588)" />
  <polygon
     class="cls-1"
     points="86.6,45.1 86.6,42 88.7,42 88.7,45.1 "
     id="polygon846"
     transform="scale(0.57622739,0.53449588)" />
  <path
     class="cls-1"
     d="m 37.224286,15.981427 a 0.97958656,0.90864299 0 1 0 0.97959,-0.908643 0.97382429,0.90329803 0 0 0 -0.97959,0.908643 z"
     id="path848"
     style="stroke-width:0.554969" />
  <polygon
     class="cls-1"
     points="69.4,50.3 69.4,47.2 71.5,47.2 71.5,50.3 "
     id="polygon850"
     transform="scale(0.57622739,0.53449588)" />
  <polygon
     class="cls-1"
     points="63.6,50.3 63.6,47.2 65.7,47.2 65.7,50.3 "
     id="polygon852"
     transform="scale(0.57622739,0.53449588)" />
  <polygon
     class="cls-1"
     points="58,50.3 58,47.2 60.1,47.2 60.1,50.3 "
     id="polygon854"
     transform="scale(0.57622739,0.53449588)" />
  <polygon
     class="cls-1"
     points="52.5,50.3 52.5,47.2 54.6,47.2 54.6,50.3 "
     id="polygon856"
     transform="scale(0.57622739,0.53449588)" />
  <polygon
     class="cls-1"
     points="75.2,50.3 75.2,47.2 77.3,47.2 77.3,50.3 "
     id="polygon858"
     transform="scale(0.57622739,0.53449588)" />
  <polygon
     class="cls-1"
     points="81,50.3 81,47.2 83,47.2 83,50.3 "
     id="polygon860"
     transform="scale(0.57622739,0.53449588)" />
  <polygon
     class="cls-1"
     points="86.6,50.3 86.6,47.2 88.7,47.2 88.7,50.3 "
     id="polygon862"
     transform="scale(0.57622739,0.53449588)" />
  <polygon
     class="cls-1"
     points="63.6,55.6 63.6,52.5 65.7,52.5 65.7,55.6 "
     id="polygon864"
     transform="scale(0.57622739,0.53449588)" />
  <polygon
     class="cls-1"
     points="58,55.6 58,52.5 60.1,52.5 60.1,55.6 "
     id="polygon866"
     transform="scale(0.57622739,0.53449588)" />
  <polygon
     class="cls-1"
     points="52.5,55.6 52.5,52.5 54.6,52.5 54.6,55.6 "
     id="polygon868"
     transform="scale(0.57622739,0.53449588)" />
  <polygon
     class="cls-1"
     points="75.2,55.6 75.2,52.5 77.3,52.5 77.3,55.6 "
     id="polygon870"
     transform="scale(0.57622739,0.53449588)" />
  <polygon
     class="cls-1"
     points="81,55.6 81,52.5 83,52.5 83,55.6 "
     id="polygon872"
     transform="scale(0.57622739,0.53449588)" />
  <polygon
     class="cls-1"
     points="86.6,55.6 86.6,52.5 88.7,52.5 88.7,55.6 "
     id="polygon874"
     transform="scale(0.57622739,0.53449588)" />
  <path
     class="cls-1"
     d="M 38.434366,6.413951 37.800516,0 l -0.5186,6.360501 a 2.6909819,2.4960957 0 0 0 -2.24729,2.244883 l 1.7863,-0.481046 h 2.18967 l 1.38294,0.481046 a 2.881137,2.6724794 0 0 0 -1.95917,-2.191433 z"
     id="path876"
     style="stroke-width:0.554969" />
  <polygon
     class="cls-1"
     points="19.3,51.4 19.3,48.8 20.9,48.8 20.9,51.4 "
     id="polygon878"
     transform="scale(0.57622739,0.53449588)" />
  <polygon
     class="cls-1"
     points="23.6,51.4 23.6,48.8 25.2,48.8 25.2,51.4 "
     id="polygon880"
     transform="scale(0.57622739,0.53449588)" />
  <polygon
     class="cls-1"
     points="27.7,51.4 27.7,48.8 29.4,48.8 29.4,51.4 "
     id="polygon882"
     transform="scale(0.57622739,0.53449588)" />
  <polygon
     class="cls-1"
     points="19.3,46.7 19.3,44.1 20.9,44.1 20.9,46.7 "
     id="polygon884"
     transform="scale(0.57622739,0.53449588)" />
  <polygon
     class="cls-1"
     points="23.6,46.7 23.6,44.1 25.2,44.1 25.2,46.7 "
     id="polygon886"
     transform="scale(0.57622739,0.53449588)" />
  <polygon
     class="cls-1"
     points="27.7,46.7 27.7,44.1 29.4,44.1 29.4,46.7 "
     id="polygon888"
     transform="scale(0.57622739,0.53449588)" />
  <polygon
     class="cls-1"
     points="19.3,56.2 19.3,53.6 20.9,53.6 20.9,56.2 "
     id="polygon890"
     transform="scale(0.57622739,0.53449588)" />
  <polygon
     class="cls-1"
     points="27.7,56.2 27.7,53.6 29.4,53.6 29.4,56.2 "
     id="polygon892"
     transform="scale(0.57622739,0.53449588)" />
  <path
     class="cls-1"
     d="M 13.483721,22.07468 Z"
     id="path894"
     style="stroke-width:0.554969" />
  <path
     class="cls-1"
     d="m 14.52093,22.021231 a 0.51860465,0.48104629 0 0 0 -1.037209,0 v 0.587945 h 0.979587 l 0.05762,-0.587945 z"
     id="path896"
     style="stroke-width:0.554969" />
  <polygon
     class="cls-1"
     points="116,51.4 116,48.8 117.6,48.8 117.6,51.4 "
     id="polygon898"
     transform="scale(0.57622739,0.53449588)" />
  <polygon
     class="cls-1"
     points="120.2,51.4 120.2,48.8 121.8,48.8 121.8,51.4 "
     id="polygon900"
     transform="scale(0.57622739,0.53449588)" />
  <polygon
     class="cls-1"
     points="124.4,51.4 124.4,48.8 126,48.8 126,51.4 "
     id="polygon902"
     transform="scale(0.57622739,0.53449588)" />
  <polygon
     class="cls-1"
     points="116,46.7 116,44.1 117.6,44.1 117.6,46.7 "
     id="polygon904"
     transform="scale(0.57622739,0.53449588)" />
  <polygon
     class="cls-1"
     points="120.2,46.7 120.2,44.1 121.8,44.1 121.8,46.7 "
     id="polygon906"
     transform="scale(0.57622739,0.53449588)" />
  <polygon
     class="cls-1"
     points="124.4,46.7 124.4,44.1 126,44.1 126,46.7 "
     id="polygon908"
     transform="scale(0.57622739,0.53449588)" />
  <polygon
     class="cls-1"
     points="116,56.2 116,53.6 117.6,53.6 117.6,56.2 "
     id="polygon910"
     transform="scale(0.57622739,0.53449588)" />
  <polygon
     class="cls-1"
     points="124.4,56.2 124.4,53.6 126,53.6 126,56.2 "
     id="polygon912"
     transform="scale(0.57622739,0.53449588)" />
  <path
     class="cls-1"
     d="m 69.204906,22.07468 v 0 c -0.0576,0 0,0.05345 0,0 z"
     id="path914"
     style="stroke-width:0.554969" />
  <path
     class="cls-1"
     d="m 70.242116,22.021231 a 0.518605,0.48104661 0 0 0 -1.03721,0 v 0.587945 h 0.97959 v -0.587945 z"
     id="path916"
     style="stroke-width:0.554969" />
  <path
     class="cls-1"
     d="m 52.494316,39.071649 h 1.09483 v -0.801744 h 0.63385 v -0.748294 h -0.63385 v -2.56558 h -1.2677 l -1.7863,2.458681 v 0.855193 h 1.95917 z m -9.85349,0.05345 c 1.44057,0 1.72868,-1.068992 1.72868,-2.084534 0,-1.015542 -0.23049,-2.084534 -1.72868,-2.084534 -1.49819,0 -1.72868,1.068992 -1.72868,2.084534 0,1.015542 0.28811,2.084534 1.72868,2.084534 z m -19.59173,-0.05345 h 1.152455 V 35.00948 h -1.03721 l -1.498191,0.908643 0.518605,0.748295 0.806718,-0.534496 v 2.939727 z m 8.297674,-2.993177 a 0.98534884,0.91398795 0 0 0 0.749096,0.855194 1.1524548,1.0689918 0 0 0 -0.864341,1.015542 c 0,0.855193 0.749091,1.175891 1.728681,1.175891 0.97959,0 1.72868,-0.320698 1.72868,-1.229341 a 1.1524548,1.0689918 0 0 0 -0.86434,-1.015542 1.0717829,0.99416233 0 0 0 0.7491,-0.962093 c 0,-0.694844 -0.63385,-1.068991 -1.49819,-1.068991 -0.97959,0.05345 -1.728686,0.374147 -1.728686,1.22934 z M 74.736696,22.288478 h -1.72869 v -1.336239 h -1.61343 v -0.962093 h -3.2845 v 0.962093 h -1.61344 v 1.28279 h -1.49819 v 9.567476 h 4.0336 v -2.512131 h 1.44056 v 2.512131 h 4.09122 v 0.801744 h -5.0708 c -5.47416,5.986354 -18.15117,11.010615 -32.21111,11.010615 -14.059952,0 -25.469254,-5.024261 -30.943415,-11.010615 H 0 V 22.235029 H 1.555814 V 20.631541 H 3.342119 V 19.295302 H 16.82584 v 1.068991 h 1.613437 v 1.33624 h 0.576227 v 0.534496 h -1.728682 v -1.33624 h -1.613437 v -0.962092 h -3.284496 v 0.962092 h -1.613437 v 1.28279 H 9.277261 v 9.567476 h 4.033592 v -2.51213 h 1.440568 v 2.51213 h 6.108011 V 21.005688 l -0.403359,-0.374147 3.630232,-3.367324 h 10.429711 v -3.100076 h -0.34573 v -0.320697 l 0.46098,-0.427597 h 0.5186 V 9.995073 l -0.46098,-0.106899 -0.11524,-0.320697 1.67106,-0.427597 v 4.436316 h 0.92196 V 9.032981 h 1.55581 v 4.543215 h 0.92197 V 9.13988 l 1.15245,0.427597 -0.11524,0.267247 -0.46098,0.1069 v 3.634572 h 0.40336 l 0.34573,0.374147 v 0.320697 h -5.0708 v 4.115619 h 4.72507 v -1.015543 h 9.27726 l 3.63023,3.367324 -0.40336,0.374148 H 28.004651 v 10.743367 h 11.524545 v -2.512131 a 0.99687339,0.92467787 0 0 1 1.95918,0 v 2.512131 h 14.17519 v -9.567477 h 1.61344 v -1.603487 h 1.7863 v -1.33624 h 13.48372 v 1.122441 h 1.61344 v 1.33624 h 0.57623 z M 37.915766,9.781275 a 0.46098191,0.4275967 0 1 0 0.46098,0.427597 0.45521964,0.42225174 0 0 0 -0.46098,-0.427597 z m 14.63617,27.740336 h -1.21008 l 1.21008,-1.710387 z m -9.91111,0.855193 c -0.5186,0 -0.57623,-0.748294 -0.57623,-1.389689 0,-0.641395 0.0576,-1.389689 0.57623,-1.389689 0.51861,0 0.57623,0.748294 0.57623,1.389689 0,0.641395 -0.0576,1.389689 -0.57623,1.389689 z m -9.16201,-0.534496 a 0.57622739,0.53449588 0 0 1 -0.57623,0.534496 0.57622739,0.53449588 0 0 1 -0.57623,-0.481046 0.57694984,0.53516601 0 1 1 1.15246,-0.05345 z m -1.09484,-1.763836 a 0.51860465,0.48104629 0 0 1 0.51861,-0.481046 0.5070801,0.47035637 0 0 1 0.5186,0.427597 0.71452196,0.66277489 0 0 1 -0.5186,0.587945 0.67418605,0.62536018 0 0 1 -0.51861,-0.534496 z"
     id="path918"
     style="stroke-width:0.554969" />
  <path
     class="cls-2"
     d="m 144.40259,39.125099 v 2.886277 c 1.03721,-0.05345 2.01679,-0.481046 2.01679,-1.603487 0,-1.015542 -1.03721,-1.28279 -2.01679,-1.28279 z m 2.42015,5.612206 c -0.40336,-0.534496 -0.74909,-1.068991 -0.92196,-1.336239 -0.51861,-0.908643 -0.46098,-0.855194 -1.49819,-1.015543 v 1.015543 c 0,1.389689 -0.0576,1.870735 1.72868,1.977634 v 0.267248 h -4.60982 V 45.3787 c 1.32532,-0.213798 1.44057,-0.106899 1.44057,-1.977634 v -2.725929 c 0,-1.38969 -0.0576,-1.550038 -1.44057,-1.656938 v -0.267248 h 3.39974 c 1.32533,0 3.16925,0 3.16925,1.603488 a 1.9591731,1.817286 0 0 1 -1.44057,1.656937 l 1.15246,1.977635 a 5.1860465,4.8104629 0 0 0 4.26408,2.351782 h 0.51861 a 5.2436693,4.8639125 0 0 1 -5.76228,-1.603488 z"
     id="path920"
     style="stroke-width:0.554969" />
  <path
     class="cls-2"
     d="m 94.904656,39.018199 c 1.0372,0.213799 1.55581,0.1069 1.61343,1.229341 l 0.0576,2.458681 c 0.0576,1.28279 -0.23049,2.458681 -2.01679,2.458681 a 2.523876,2.3410919 0 0 1 -2.07442,-0.855193 4.269845,3.9606145 0 0 1 -0.34574,-1.924186 v -1.443138 c 0,-1.38969 -0.0576,-1.870736 1.44057,-1.977635 v -0.267248 h -4.3217 v 0.267248 c 1.32532,0.213798 1.44057,0.106899 1.44057,1.977635 v 1.603487 c 0,0.855194 -0.11525,1.817286 0.63385,2.458681 a 3.9298708,3.6452619 0 0 0 2.5354,0.748294 3.3824548,3.1374908 0 0 0 2.5354,-0.855193 c 0.63385,-0.587945 0.63385,-1.550038 0.69147,-2.351782 l 0.0576,-1.550038 c 0.11525,-1.710387 0.11525,-1.870735 1.15246,-2.084534 h 0.46098 l 0.0576,-0.267248 h -3.91834 v 0.374147 z"
     id="path922"
     style="stroke-width:0.554969" />
  <path
     class="cls-2"
     d="m 102.22274,43.882112 c 0,1.389689 -0.57622,1.33624 -1.32532,1.496588 v 0.267248 h 3.57261 V 45.3787 c -1.2677,-0.267248 -1.55581,-0.320697 -1.55581,-1.603487 -0.0576,-1.122442 -0.11525,-2.191433 -0.0576,-3.313875 1.78631,1.817286 5.99277,6.307052 5.99277,6.307052 v -5.558757 c 0,-1.656938 0.0576,-2.084534 1.03721,-2.191434 v -0.267248 h -3.34212 v 0.267248 c 1.2677,0.160349 1.61344,0.320698 1.67106,1.550038 l 0.0576,3.260425 v 0 c -1.55581,-1.710386 -3.51499,-3.420773 -4.89793,-5.077711 h -2.5354 v 0.267248 c 1.38294,0.213799 1.44057,0.962093 1.44057,2.031085 v 2.832828 z"
     id="path924"
     style="stroke-width:0.554969" />
  <path
     class="cls-2"
     d="m 116.28269,40.942385 c 0,-1.817286 0.11525,-1.763837 1.44057,-1.977635 v -0.267248 h -4.32171 v 0.267248 c 1.32533,0.213798 1.44057,0.106899 1.44057,1.977635 v 2.405231 c 0,1.817286 -0.11524,1.763836 -1.44057,1.977635 v 0.267248 h 4.32171 v -0.267248 c -1.32532,-0.213799 -1.44057,-0.106899 -1.44057,-1.977635 z"
     id="path926"
     style="stroke-width:0.554969" />
  <path
     class="cls-2"
     d="m 124.63799,46.76839 2.36253,-5.344959 c 0.7491,-1.656937 1.03721,-2.298332 2.0168,-2.405232 v -0.267248 h -3.45737 v 0.267248 c 1.38295,0.213799 1.72868,0.160349 0.57623,2.939728 l -0.97959,2.191433 -1.49819,-3.367324 c -0.69147,-1.496589 -0.63385,-1.496589 0.63385,-1.763837 v -0.267248 h -3.91834 v 0.267248 c 0.86434,0.267248 0.86434,0.213799 1.44056,1.33624 z"
     id="path928"
     style="stroke-width:0.554969" />
  <path
     class="cls-2"
     d="m 135.12533,42.332074 c 0.97958,0 1.49819,0 1.67106,0.962092 h 0.28811 a 22.167468,20.562056 0 0 1 0.0576,-2.56558 h -0.28811 c -0.28811,0.908643 -0.7491,1.015542 -1.72868,1.015542 h -0.92197 v -2.619029 h 0.80672 c 1.21008,0 2.18967,0 2.24729,1.336239 h 0.34573 l 0.2305,-1.763836 h -6.51137 v 0.267248 c 1.32532,0.213798 1.44056,0.106899 1.44056,1.977635 v 2.405231 c 0,1.817286 -0.11524,1.763836 -1.44056,1.977635 v 0.267248 h 6.62661 a 7.5370543,6.9912061 0 0 0 0.40336,-2.351782 h -0.34574 c -0.28811,1.175891 -0.92196,1.924185 -2.36253,1.924185 -1.44057,0 -1.49819,-0.481046 -1.49819,-1.496588 v -1.33624 z"
     id="path930"
     style="stroke-width:0.554969" />
  <path
     class="cls-2"
     d="m 163.59096,40.942385 c 0,-1.817286 0.11525,-1.763837 1.44057,-1.977635 v -0.267248 h -4.32171 v 0.267248 c 1.32533,0.213798 1.44057,0.106899 1.44057,1.977635 v 2.405231 c 0,1.817286 -0.11524,1.763836 -1.44057,1.977635 v 0.267248 h 4.32171 v -0.267248 c -1.32532,-0.213799 -1.44057,-0.106899 -1.44057,-1.977635 z"
     id="path932"
     style="stroke-width:0.554969" />
  <path
     class="cls-2"
     d="m 168.2584,40.728586 c 0.46098,-1.443139 1.2677,-1.603487 2.76589,-1.603487 v 4.222517 c 0,1.817286 -0.11524,1.763836 -1.67106,1.977635 v 0.267248 h 4.72507 v -0.267248 c -1.49819,-0.213799 -1.67106,-0.106899 -1.67106,-1.977635 v -4.222517 c 1.49819,0 2.30491,0.160348 2.76589,1.603487 l 0.28811,-0.05345 -0.23049,-1.977635 h -7.08759 l -0.23049,1.977635 z"
     id="path934"
     style="stroke-width:0.554969" />
  <path
     class="cls-2"
     d="m 181.91499,42.706221 0.17287,-0.374147 1.2677,-2.137984 a 2.4028682,2.2288478 0 0 1 1.84393,-1.175891 v -0.267248 h -3.16925 v 0.267248 c 0.97958,0.213799 1.15245,0.320698 0.23049,2.084534 l -0.57623,1.122442 -0.97959,-1.870736 c -0.63385,-1.22934 -0.28811,-1.175891 0.51861,-1.33624 v -0.267248 h -3.8031 v 0.267248 c 1.21008,0.213799 1.38294,0.694845 1.84393,1.603488 l 1.21007,2.298332 v 0.481047 c 0,1.817286 -0.11524,1.763836 -1.61343,1.977634 v 0.267248 h 4.60982 V 45.3787 c -1.67106,-0.106899 -1.61344,-0.587945 -1.61344,-1.977634 v -0.694845 z"
     id="path936"
     style="stroke-width:0.554969" />
  <path
     class="cls-2"
     d="m 154.71706,45.806297 c 1.38294,0 2.88114,-0.587945 2.88114,-2.084534 0,-2.137983 -3.63024,-2.031084 -3.63024,-3.688021 a 1.1063566,1.0262321 0 0 1 1.09483,-1.068992 c 1.15246,0 1.38295,0.908643 1.61344,1.763836 h 0.34574 l 0.11524,-1.763836 a 3.5726098,3.3138744 0 0 0 -1.84392,-0.481046 c -1.32533,0 -2.70827,0.748294 -2.70827,2.084533 0,2.031085 3.63023,1.870736 3.63023,3.581123 a 1.198553,1.1117514 0 0 1 -1.2677,1.122441 c -1.2677,0 -2.07442,-1.122441 -2.47778,-2.137983 l -0.34573,0.05345 0.40335,1.924185 a 3.261447,3.0252467 0 0 0 2.18967,0.694844 z"
     id="path938"
     style="stroke-width:0.554969" />
  <path
     class="cls-2"
     d="m 174.42404,12.774452 c -5.3013,0 -7.43334,4.810463 -7.43334,8.712283 0,4.436315 2.5354,10.101972 8.12481,10.101972 5.12842,0 7.37571,-4.810463 7.37571,-8.926081 -0.17287,-5.077711 -3.34212,-9.888174 -8.06718,-9.888174 z m 0.23049,-1.229341 c 8.35529,0 11.98553,5.291509 11.98553,10.636468 0,6.52085 -5.07081,10.636468 -11.92791,10.636468 -6.85711,0 -11.92791,-4.169068 -11.92791,-10.689917 -0.0576,-6.413951 5.0708,-10.583019 11.87029,-10.583019 z"
     id="path940"
     style="stroke-width:0.554969" />
  <path
     class="cls-2"
     d="m 99.399226,12.774452 c -5.30129,0 -7.43333,4.810463 -7.43333,8.712283 0,4.436315 2.5354,10.101972 8.124804,10.101972 5.12843,0 7.37571,-4.810463 7.37571,-8.926081 -0.11524,-5.077711 -3.34212,-9.888174 -8.067184,-9.888174 z m 0.28811,-1.229341 c 8.355304,0 11.985534,5.291509 11.985534,10.636468 0,6.52085 -5.0708,10.636468 -11.927904,10.636468 -6.85711,0 -11.92791,-4.169068 -11.92791,-10.689917 -0.0576,-6.413951 5.01318,-10.583019 11.87028,-10.583019 z"
     id="path942"
     style="stroke-width:0.554969" />
  <path
     class="cls-2"
     d="m 154.60181,16.83662 c 0.11525,-3.100076 0.11525,-4.062168 4.03359,-4.543214 v -0.481047 h -11.00594 v 0.481047 c 3.91835,0.481046 3.97597,1.389689 4.03359,4.543214 v 10.689918 c -0.11524,3.153526 -0.11524,4.062169 -4.03359,4.543215 v 0.481046 h 11.00594 v -0.481046 c -3.91834,-0.481046 -3.97596,-1.389689 -4.03359,-4.543215 z"
     id="path944"
     style="stroke-width:0.554969" />
  <path
     class="cls-2"
     d="m 122.73644,16.83662 v 3.367325 h 13.02274 V 16.83662 c -0.11525,-3.100076 -0.11525,-4.062168 -4.03359,-4.543214 v -0.481047 h 11.00594 v 0.481047 c -3.91835,0.481046 -3.97597,1.389689 -4.03359,4.543214 v 10.689918 c 0.11524,3.153526 0.11524,4.062169 4.03359,4.543215 v 0.481046 h -11.00594 v -0.481046 c 3.91834,-0.481046 3.97596,-1.389689 4.03359,-4.543215 V 22.07468 h -13.02274 v 5.451858 c 0.11524,3.153526 0.11524,4.062169 4.03359,4.543215 v 0.481046 h -11.00594 v -0.481046 c 3.91834,-0.481046 3.97597,-1.389689 4.03359,-4.543215 V 16.83662 c -0.11525,-3.100076 -0.11525,-4.062168 -4.03359,-4.543214 v -0.481047 h 11.00594 v 0.481047 c -3.91835,0.534495 -3.91835,1.443138 -4.03359,4.543214 z"
     id="path946"
     style="stroke-width:0.554969" />
  <metadata
     id="metadata1031">
    <rdf:RDF>
      <cc:Work
         rdf:about="">
        <dc:title>Ohio Logo Green Gray-2</dc:title>
      </cc:Work>
    </rdf:RDF>
  </metadata>
</svg>
